<svg width="28" height="26" viewBox="0 0 28 26" fill="none" xmlns="http://www.w3.org/2000/svg">
<path d="M14 0C12.1615 0 10.341 0.344603 8.64243 1.01413C6.94387 1.68366 5.40053 2.66501 4.1005 3.90214C1.475 6.40064 0 9.78934 0 13.3228C0 19.2114 4.018 24.2074 9.576 25.9794C10.276 26.0859 10.5 25.6729 10.5 25.3132V23.0617C6.622 23.861 5.796 21.2764 5.796 21.2764C5.152 19.731 4.242 19.318 4.242 19.318C2.968 18.492 4.34 18.5186 4.34 18.5186C5.74 18.6119 6.482 19.8909 6.482 19.8909C7.7 21.9159 9.758 21.3164 10.556 20.9967C10.682 20.1307 11.046 19.5445 11.438 19.2114C8.33 18.8783 5.068 17.7326 5.068 12.6566C5.068 11.1778 5.6 9.99206 6.51 9.04615C6.37 8.71308 5.88 7.32751 6.65 5.52894C6.65 5.52894 7.826 5.16923 10.5 6.88786C11.606 6.59476 12.81 6.44821 14 6.44821C15.19 6.44821 16.394 6.59476 17.5 6.88786C20.174 5.16923 21.35 5.52894 21.35 5.52894C22.12 7.32751 21.63 8.71308 21.49 9.04615C22.4 9.99206 22.932 11.1778 22.932 12.6566C22.932 17.7459 19.656 18.865 16.534 19.1981C17.038 19.6111 17.5 20.4238 17.5 21.6628V25.3132C17.5 25.6729 17.724 26.0993 18.438 25.9794C23.996 24.1941 28 19.2114 28 13.3228C28 11.5732 27.6379 9.84074 26.9343 8.22435C26.2307 6.60796 25.1995 5.13927 23.8995 3.90214C22.5995 2.66501 21.0561 1.68366 19.3576 1.01413C17.659 0.344603 15.8385 0 14 0Z" fill="#102429"/>
</svg>
