<svg width="28" height="28" viewBox="0 0 28 28" fill="none" xmlns="http://www.w3.org/2000/svg">
<path d="M1.52 7.714C2.70859 5.39454 4.53196 3.44472 6.78633 2.08246C9.0407 0.720197 11.6372 -0.000816996 14.2857 6.94724e-07C18.1357 6.94724e-07 21.37 1.3874 23.8429 3.647L19.7471 7.6622C18.2657 6.2748 16.3829 5.5678 14.2857 5.5678C10.5643 5.5678 7.41429 8.0318 6.29286 11.34C6.00714 12.18 5.84429 13.076 5.84429 14C5.84429 14.924 6.00714 15.82 6.29286 16.66C7.41572 19.9696 10.5643 22.4322 14.2857 22.4322C16.2071 22.4322 17.8429 21.9352 19.1229 21.0952C19.8649 20.6164 20.5002 19.9951 20.9903 19.2689C21.4804 18.5427 21.8151 17.7266 21.9743 16.87H14.2857V11.4548H27.74C27.9086 12.3704 28 13.3252 28 14.3178C28 18.5822 26.4429 22.1718 23.74 24.6078C21.3771 26.747 18.1429 28 14.2857 28C12.4095 28.0007 10.5515 27.6391 8.81792 26.9358C7.08436 26.2325 5.50922 25.2013 4.18251 23.9011C2.85581 22.601 1.80357 21.0573 1.08591 19.3584C0.368248 17.6595 -0.000749802 15.8387 1.14388e-06 14C1.14388e-06 11.7404 0.55143 9.604 1.52 7.714Z" fill="#102429"/>
</svg>
