<svg width="28" height="28" viewBox="0 0 28 28" fill="none" xmlns="http://www.w3.org/2000/svg">
<path d="M1.4158 11.16C4.68028 18.2733 10.4808 23.9111 17.6817 26.9695L18.8379 27.485C20.1184 28.0555 21.559 28.1556 22.9059 27.7674C24.2528 27.3793 25.4196 26.5279 26.2006 25.3634L27.7122 23.1107C27.9488 22.7574 28.0446 22.3283 27.9807 21.9079C27.9168 21.4875 27.6979 21.1063 27.3671 20.8393L22.2455 16.7049C22.0671 16.561 21.8616 16.4546 21.6411 16.3922C21.4206 16.3298 21.1898 16.3127 20.9626 16.3417C20.7353 16.3708 20.5163 16.4456 20.3186 16.5615C20.1209 16.6774 19.9487 16.8321 19.8123 17.0162L18.2275 19.1549C14.1595 17.1446 10.8667 13.8492 8.85838 9.77841L10.9941 8.19269C11.1781 8.05618 11.3327 7.88384 11.4485 7.68605C11.5644 7.48826 11.6391 7.26908 11.6681 7.04168C11.6972 6.81428 11.68 6.58335 11.6177 6.36275C11.5553 6.14215 11.449 5.93644 11.3052 5.75797L7.1733 0.633312C6.9065 0.302307 6.52551 0.0832678 6.10535 0.0193406C5.6852 -0.0445866 5.25635 0.0512332 4.90329 0.287925L2.63667 1.80899C1.46579 2.59467 0.611666 3.77074 0.226465 5.12771C-0.158737 6.48468 -0.0500028 7.93441 0.533296 9.21865L1.4158 11.16Z" fill="#102429"/>
</svg>
